<svg xmlns="http://www.w3.org/2000/svg" xmlns:xlink="http://www.w3.org/1999/xlink" fill="none" version="1.1" width="13.988024711608887" height="11.656686782836914" viewBox="0 0 13.988024711608887 11.656686782836914"><path d="M13.298941,0.059900999L0.52859378,4.9877095C-0.19107091,5.2654099,-0.17304295,5.6689868,0.56528842,5.8880692L3.6508772,6.8036137L4.9054403,10.536595C5.0696878,11.025314,5.498765,11.128372,5.8657913,10.764779L7.4842987,9.1614742L10.679221,11.502728C11.094311,11.806903,11.521073,11.646823,11.633121,11.141945L13.964539,0.63655567C14.076266,0.13311458,13.778686,-0.12521672,13.298941,0.059900999ZM11.355596,2.4351344L5.9084101,7.2884197C5.810462,7.3756847,5.7218237,7.5486193,5.7082186,7.676651L5.4677401,9.9375534C5.4407377,10.19143,5.3532009,10.201904,5.2724667,9.9585676L4.2184467,6.7814016C4.1772165,6.6571064,4.233696,6.504755,4.3437958,6.4387274L11.251836,2.2952704C11.692059,2.0312386,11.738925,2.0935936,11.355596,2.4351344Z" fill="#FFFFFF" fill-opacity="1"/></svg>