<svg xmlns="http://www.w3.org/2000/svg" xmlns:xlink="http://www.w3.org/1999/xlink" fill="none" version="1.1" width="16" height="15.746756553649902" viewBox="0 0 16 15.746756553649902"><path d="M4.9391775,0.051722825C5.1660132,-0.046382807,5.4292727,-0.0026445012,5.6121988,0.16353963C5.7951255,0.32972378,5.8638554,0.5875898,5.7879071,0.82277256C5.5665097,1.5102324,5.4541421,2.2281234,5.4548888,2.9503517C5.4548888,6.7737665,8.5543795,9.8732557,12.377792,9.8732557C13.321207,9.8746309,14.254873,9.6824627,15.121062,9.3086348C15.347747,9.2107201,15.61075,9.2544155,15.793597,9.420372C15.976442,9.5863295,16.045347,9.8438787,15.969792,10.078965C14.877983,13.457577,11.732258,15.746856,8.1816139,15.746757C3.6632051,15.746757,0,12.08427,0,7.5651431C0,4.2709193,1.9664644,1.3363272,4.9391775,0.051722825ZM15.314543,1.062287C15.883481,1.062287,16.148888,1.7477441,15.764084,2.1325498L15.707979,2.1828985L12.912926,4.4183674L15.315263,4.4183674C15.635334,4.4183674,15.900024,4.6586013,15.938865,4.9693227L15.943899,5.0484414C15.943879,5.3654189,15.708125,5.6329136,15.393662,5.6727614L15.314546,5.6770768L11.119083,5.6770768C10.550147,5.6770768,10.284739,4.9923387,10.669544,4.6068139L10.725647,4.5564651L13.519984,2.3209963L11.396,2.3209963C11.079023,2.3209751,10.811529,2.085222,10.77168,1.7707601L10.766645,1.6916411C10.766645,1.3708501,11.006879,1.1061612,11.316881,1.0673209L11.396,1.0622859L15.314543,1.062287Z" fill="#8663E7" fill-opacity="1"/></svg>