<svg xmlns="http://www.w3.org/2000/svg" xmlns:xlink="http://www.w3.org/1999/xlink" fill="none" version="1.1" width="15.333333015441895" height="15.333333969116211" viewBox="0 0 15.333333015441895 15.333333969116211"><path d="M7.6666665,13.333334C7.9428086,13.333334,8.166667,13.557192,8.166667,13.833334L8.166667,14.833334C8.166667,15.109476,7.9428086,15.333334,7.6666665,15.333334C7.3905239,15.333334,7.1666665,15.109476,7.1666665,14.833334L7.1666665,13.833334C7.1666665,13.557192,7.3905239,13.333334,7.6666665,13.333334ZM3.6599998,11.673334C3.8554134,11.868622,3.8554134,12.185379,3.6599998,12.380668L2.9526668,13.087667C2.7560282,13.273752,2.4470019,13.269528,2.2555227,13.078139C2.0640435,12.88675,2.0596743,12.577726,2.2456665,12.381001L2.9523335,11.673667C3.1476212,11.478253,3.4643784,11.478253,3.6596665,11.673667L3.6599998,11.673334ZM12.380668,11.673334L13.087667,12.380668C13.27375,12.577306,13.269526,12.886331,13.078137,13.077809C12.886749,13.269288,12.577726,13.273658,12.381001,13.087667L11.673667,12.381001C11.478112,12.185807,11.477928,11.86901,11.673256,11.67359C11.868584,11.478169,12.185381,11.478205,12.380667,11.673667L12.380668,11.673334ZM7.6666665,3C10.244,3,12.333333,5.0893331,12.333333,7.6666665C12.333333,10.244,10.243999,12.333333,7.666666,12.333333C5.0893331,12.333333,2.9999995,10.243999,2.9999995,7.666666C2.9999995,5.0893331,5.0893331,2.9999998,7.6666665,3ZM1.5,7.1666665C1.7761425,7.1666665,2,7.3905239,2,7.6666665C2,7.9428086,1.7761425,8.166667,1.5,8.166667L0.5,8.166667C0.22385764,8.166667,0,7.9428086,0,7.6666665C0,7.3905239,0.22385764,7.1666665,0.5,7.1666665L1.5,7.1666665ZM14.833333,7.1666665C15.109475,7.1666665,15.333333,7.3905239,15.333333,7.6666665C15.333333,7.9428086,15.109475,8.166667,14.833333,8.166667L13.833333,8.166667C13.557191,8.166667,13.333333,7.9428086,13.333333,7.6666665C13.333333,7.3905239,13.557191,7.1666665,13.833333,7.1666665L14.833333,7.1666665ZM2.9526668,2.2456667L3.6596665,2.9523335C3.8552217,3.1475265,3.8554058,3.4643242,3.6600776,3.659744C3.4647498,3.8551643,3.1479521,3.85513,2.9526668,3.6596668L2.2456665,2.9526668C2.0595841,2.7560279,2.0638084,2.4470036,2.2551966,2.2555251C2.4465852,2.0640466,2.7556071,2.0596766,2.9523335,2.2456667L2.9526668,2.2456667ZM13.087667,2.2456667C13.282637,2.4408786,13.282637,2.7571218,13.087667,2.9523335L12.381001,3.6596668C12.185787,3.8551066,11.869083,3.8552363,11.673712,3.6599555C11.478339,3.4646754,11.478319,3.1479714,11.673667,2.9526668L12.380667,2.2456667C12.575917,2.0504761,12.892417,2.0504761,13.087667,2.2456667ZM7.6666665,0C7.9428086,0,8.166667,0.22385758,8.166667,0.5L8.166667,1.5C8.166667,1.7761424,7.9428086,2,7.6666665,2C7.3905239,2,7.1666665,1.7761424,7.1666665,1.5L7.1666665,0.49999994C7.1666665,0.22385758,7.3905239,-2.9802322e-8,7.6666665,0Z" fill="#33B889" fill-opacity="1"/></svg>